<svg width="139" height="138" viewBox="0 0 139 138" fill="none" xmlns="http://www.w3.org/2000/svg">
<path d="M69.003 10.5417C71.8518 10.5326 74.6463 11.3213 77.07 12.8185C79.4937 14.3158 81.4498 16.4617 82.7167 19.0133L125.842 105.263C127.012 107.601 127.564 110.199 127.447 112.811C127.33 115.422 126.548 117.961 125.174 120.185C123.799 122.409 121.88 124.244 119.596 125.517C117.313 126.79 114.742 127.459 112.128 127.458H25.878C23.2638 127.459 20.6929 126.79 18.4096 125.517C16.1263 124.244 14.2064 122.409 12.8323 120.185C11.4582 117.961 10.6755 115.422 10.5586 112.811C10.4416 110.199 10.9944 107.601 12.1642 105.263L55.2892 19.0133C56.5561 16.4617 58.5122 14.3158 60.9359 12.8185C63.3596 11.3213 66.1541 10.5326 69.003 10.5417ZM69.003 1.68735e-07C64.1981 -0.00054846 59.488 1.33678 55.4004 3.86216C51.3127 6.38754 48.0089 10.0012 45.8592 14.2983L2.73421 100.548C0.760566 104.493 -0.17169 108.878 0.0259996 113.285C0.223689 117.691 1.54476 121.975 3.86372 125.727C6.18268 129.48 9.42253 132.577 13.2755 134.725C17.1285 136.873 21.4667 138.001 25.878 138H112.128C116.539 138.001 120.877 136.873 124.73 134.725C128.583 132.577 131.823 129.48 134.142 125.727C136.461 121.975 137.782 117.691 137.98 113.285C138.178 108.878 137.245 104.493 135.272 100.548L92.1467 14.2983C89.997 10.0012 86.6932 6.38754 82.6055 3.86216C78.5179 1.33678 73.8078 -0.00054846 69.003 1.68735e-07V1.68735e-07Z" fill="#70D44B"/>
</svg>